<mxfile host="app.diagrams.net" modified="2024-06-12T03:00:13.154Z" agent="Mozilla/5.0 (Windows NT 10.0; Win64; x64) AppleWebKit/537.36 (KHTML, like Gecko) Chrome/125.0.0.0 Safari/537.36" version="24.5.3" etag="HdenDgCNkQL6c5iLIEsv" type="github">
  <diagram name="第 1 页" id="1k0JbF9F-PYw_30NlD3D">
    <mxGraphModel>
      <root>
        <mxCell id="0" />
        <mxCell id="1" parent="0" />
      </root>
    </mxGraphModel>
  </diagram>
</mxfile>
